<svg width="24" height="24" viewBox="0 0 24 24" fill="none" xmlns="http://www.w3.org/2000/svg">
<path d="M19.2 19.65C19.2 20.37 18.57 21 17.85 21H12.9C12.54 21 12.27 20.91 12 20.64L8.4 16.86L9.03 16.14C9.21 15.96 9.48 15.87 9.75 15.87H9.93L12 17.4V9.3C12 8.76 12.36 8.4 12.9 8.4C13.44 8.4 13.8 8.76 13.8 9.3V13.35L14.88 13.44L18.39 15.42C18.84 15.6 19.2 16.14 19.2 16.59V19.65ZM19.2 3H4.8C3.81 3 3 3.81 3 4.8V12C3 12.99 3.81 13.8 4.8 13.8H8.4V12H4.8V4.8H19.2V12H17.4V13.8H19.2C20.19 13.8 21 12.99 21 12V4.8C21 3.81 20.19 3 19.2 3Z" fill="black"/>
</svg>
