<svg width="24" height="24" viewBox="0 0 24 24" fill="none" xmlns="http://www.w3.org/2000/svg">
<path d="M20.1818 4H3.81818C2.90909 4 2 4.88889 2 5.77778V18.2222C2 19.2 2.81818 20 3.81818 20H20.1818C21.0909 20 22 19.1111 22 18.2222V5.77778C22 4.88889 21.0909 4 20.1818 4ZM20.1818 18.1511C20.1636 18.1778 20.1273 18.2044 20.1091 18.2222H3.81818V5.84889L3.89091 5.77778H20.1C20.1273 5.79556 20.1545 5.83111 20.1727 5.84889V18.1511H20.1818ZM11.0909 15.12L8.81818 12.4444L5.63636 16.4444H18.3636L14.2727 11.1111L11.0909 15.12Z" fill="black"/>
</svg>
