<svg width="24" height="24" viewBox="0 0 24 24" fill="none" xmlns="http://www.w3.org/2000/svg">
<g clip-path="url(#clip0_201_2)">
<path d="M12.8571 8.57142H22.2857C22.513 8.57142 22.7311 8.66173 22.8918 8.82247C23.0526 8.98322 23.1429 9.20123 23.1429 9.42856V14.5714C23.1429 14.7987 23.0526 15.0168 22.8918 15.1775C22.7311 15.3383 22.513 15.4286 22.2857 15.4286H12.8571M4.28572 15.4286H1.71429C1.48696 15.4286 1.26894 15.3383 1.1082 15.1775C0.947453 15.0168 0.857147 14.7987 0.857147 14.5714V9.42856C0.857147 9.20123 0.947453 8.98322 1.1082 8.82247C1.26894 8.66173 1.48696 8.57142 1.71429 8.57142H4.28572M6.85715 4.28571H10.2857M6.85715 19.7143H10.2857M8.57143 4.28571V19.7143" stroke="black" stroke-width="2" stroke-linecap="round" stroke-linejoin="round"/>
</g>
<defs>
<clipPath id="clip0_201_2">
<rect width="24" height="24" fill="white"/>
</clipPath>
</defs>
</svg>
